<svg width="146" height="30" viewBox="0 0 146 30" fill="none" xmlns="http://www.w3.org/2000/svg">
<path fill-rule="evenodd" clip-rule="evenodd" d="M11.6173 11.1147L28.9721 1.09492L28.9112 0.0811602L8.67353 4.78316C8.16251 4.90019 7.62595 4.81027 7.181 4.53304C6.73606 4.25581 6.41888 3.81378 6.29873 3.30349L5.53158 0L3.00382 0.151401L8.91468 10.3904C9.17818 10.8436 9.61028 11.1741 10.1166 11.3098C10.623 11.4455 11.1625 11.3754 11.6173 11.1147ZM17.7373 18.4248L0.383184 28.4438L0.444056 29.4575L20.6818 24.7555C21.1928 24.6383 21.7295 24.7281 22.1745 25.0054C22.6195 25.2826 22.9366 25.7248 23.0566 26.2352L23.8245 29.5387L26.3523 29.3873L20.4414 19.149C20.1779 18.6954 19.7455 18.3646 19.2388 18.2289C18.7321 18.0932 18.1922 18.1636 17.7373 18.4248ZM11.1154 17.8723L1.09492 0.517411L0.081163 0.578285L4.78316 20.8152C4.90021 21.3263 4.81031 21.863 4.5331 22.3081C4.25588 22.7531 3.81385 23.0705 3.3035 23.1908L0 23.958L0.1514 26.4849L10.3904 20.5741C10.8437 20.3109 11.1744 19.8789 11.3102 19.3727C11.4461 18.8665 11.376 18.3271 11.1154 17.8723ZM18.2406 11.6664L28.2604 29.0213L29.2741 28.9604L24.5721 8.72347C24.4549 8.21244 24.5447 7.67578 24.822 7.23078C25.0993 6.78578 25.5414 6.46864 26.0518 6.34867L29.3553 5.58153L29.2039 3.05376L18.9649 8.9654C18.5115 9.22832 18.1807 9.66014 18.045 10.1664C17.9093 10.6726 17.9796 11.2119 18.2406 11.6664Z" fill="#067164"/>
<path fill-rule="evenodd" clip-rule="evenodd" d="M34.7912 11.4518H36.6346C37.6436 11.4518 39.4643 11.5431 40.6053 11.6563C40.5463 11.2035 40.5463 10.7449 40.6053 10.2921C39.4206 10.3827 37.6436 10.4287 36.6346 10.4287H34.7912V7.29066C34.7912 6.81305 34.8131 4.97127 34.8568 4.42576H35.4054C37.9722 4.42576 39.8374 4.5397 41.0221 4.78943C40.9939 4.53258 40.9793 4.27443 40.9784 4.01604C40.9784 3.76631 41.0002 3.3566 41.0221 3.19739C39.3543 3.26529 37.1169 3.31133 35.8666 3.31133C34.6164 3.31133 33.6721 3.26529 32.7949 3.19739C32.905 4.42499 32.9487 8.04065 32.9487 11.3387C32.9487 14.6367 32.905 18.3429 32.7949 19.6844H37.0076C38.346 19.6844 40.276 19.7102 41.0002 19.7789C41.0002 19.6384 40.9784 19.2521 40.9784 19.0242C40.9784 18.7745 41.0002 18.4327 41.0002 18.2969C38.9602 18.4779 36.5682 18.57 35.4062 18.57H34.9231C34.8576 17.3416 34.7912 14.1583 34.7912 12.6349V11.4518ZM43.8526 19.6844C44.0653 19.6175 44.2877 19.5866 44.5105 19.5931C44.7524 19.5931 44.9936 19.6158 45.2566 19.6844C45.1255 15.4999 45.1028 12.2705 45.1028 10.1103C45.1028 9.58742 45.1466 7.40461 45.1684 6.97226L50.8069 13.1118C53.2426 15.7722 55.2389 18.0463 56.7529 20.006H57.0604C57.0385 19.2973 57.0159 16.1593 57.0159 14.5446C57.0159 11.1108 57.0377 7.33593 57.1696 3.19739C56.9484 3.26077 56.7192 3.29127 56.4891 3.28792C56.248 3.28792 56.006 3.26529 55.7649 3.19739C55.8523 5.38021 55.9186 8.81404 55.9186 13.4762C55.9186 14.067 55.8968 14.7717 55.8749 15.5912C52.4302 11.9981 48.5468 7.83617 44.4442 2.90161H44.0056V5.47074C44.0056 10.4287 43.94 18.6153 43.8526 19.6844ZM72.8786 18.6605L73.0097 17.0685C71.4083 18.4108 69.6305 19.0929 67.9417 19.0929C64.2776 19.0929 61.952 16.2732 61.952 11.4979C61.952 6.58595 64.2558 3.81158 68.0954 3.81158C70.2236 3.81158 71.6939 4.6076 72.8123 6.3807C72.8123 5.60731 72.9434 4.85733 73.1853 4.08394C71.6931 3.31055 69.9825 2.90161 68.1828 2.90161C62.8737 2.90161 59.539 6.31281 59.539 11.4745C59.539 16.8874 62.5006 20.006 67.6568 20.006C69.9825 20.006 71.7376 19.5252 72.8786 18.6605ZM78.8901 19.6844C79.2522 19.6199 79.6196 19.5893 79.9874 19.5931C80.3378 19.5931 80.6671 19.6158 81.0175 19.6844C80.9303 18.1546 80.8865 16.6225 80.8864 15.0901C80.8864 14.2262 80.9075 13.2257 80.952 12.5663C82.6334 9.3983 84.3965 6.2743 86.2393 3.19739C85.9326 3.26529 85.6696 3.28792 85.3613 3.28792C85.0991 3.28792 84.8127 3.26529 84.506 3.19739C83.2847 6.01985 81.8852 8.76177 80.3159 11.4066C78.6256 8.7914 77.156 6.0623 75.9487 3.19739C75.5351 3.26132 75.117 3.29159 74.6985 3.28792C74.2599 3.28792 73.7761 3.26529 73.4264 3.19739C75.2034 6.29018 77.046 9.5648 78.933 12.9526C78.9986 14.0217 79.0431 15.1354 79.0431 16.2498C79.0439 17.3869 78.9557 18.524 78.8901 19.6844ZM87.9078 19.6844C88.1271 19.6158 88.3027 19.5931 88.5665 19.5931C88.8076 19.5931 89.048 19.6158 89.3118 19.6844C89.1807 15.4999 89.158 12.2705 89.158 10.1103C89.158 9.58742 89.2025 7.40461 89.2252 6.97226L94.8637 13.1118C97.2993 15.7722 99.2949 18.0463 100.81 20.006H101.116C101.095 19.2973 101.072 16.1593 101.072 14.5446C101.072 11.1108 101.094 7.33593 101.226 3.19739C101.005 3.26077 100.776 3.29127 100.546 3.28792C100.303 3.28792 100.063 3.26529 99.8216 3.19739C99.9083 5.38021 99.9754 8.81404 99.9754 13.4762C99.9754 14.067 99.9527 14.7717 99.9309 15.5912C96.4861 11.9981 92.602 7.83617 88.5009 2.90161H88.0623V5.47074C88.0616 10.4287 87.996 18.6153 87.9078 19.6844ZM112.195 20.006C117.351 20.006 120.752 16.569 120.752 11.4745C120.752 6.24413 117.504 2.90161 112.195 2.90161C107.017 2.90161 103.617 6.26676 103.617 11.4745C103.616 16.7282 106.863 20.006 112.195 20.006ZM112.195 19.0929C108.18 19.0929 105.92 16.4098 105.92 11.5431C105.92 6.58517 108.224 3.81158 112.195 3.81158C116.276 3.81158 118.448 6.47201 118.448 11.4526C118.447 16.3864 116.166 19.0929 112.195 19.0929ZM126.521 19.6844C126.785 19.6158 127.025 19.5931 127.289 19.5931C127.553 19.5931 127.793 19.6158 128.057 19.6844C130.101 14.1595 132.222 8.66326 134.419 3.19739C134.221 3.26529 133.915 3.28792 133.651 3.28792C133.41 3.28792 133.125 3.26529 132.883 3.19739C131.298 7.95196 129.579 12.661 127.728 17.319C125.868 12.6515 124.112 7.94316 122.462 3.19739C122.2 3.24266 121.696 3.28792 121.322 3.28792C120.948 3.28792 120.554 3.26529 120.203 3.19739C122.266 8.29116 124.349 13.8165 126.521 19.6844ZM131.477 19.6844C131.678 19.6384 132.007 19.5931 132.248 19.5931C132.512 19.5931 132.796 19.6158 133.016 19.6844C133.761 17.4782 134.529 15.3406 135.429 13.2484C136.197 13.2257 137.337 13.2031 138.304 13.2031C139.51 13.2031 140.871 13.2257 141.156 13.2484L141.55 14.2036C142.384 16.2046 143.02 18.0463 143.548 19.6844C143.942 19.6158 144.337 19.5931 144.732 19.5931C145.127 19.5931 145.5 19.6158 145.874 19.6844C143.536 14.1249 141.283 8.52998 139.116 2.90161H138.677C136.356 8.52954 133.956 14.1244 131.477 19.6844ZM138.304 6.19887C139.489 9.06377 140.146 10.7237 140.301 11.1334L140.696 12.1339C140.234 12.1566 138.391 12.18 137.58 12.18C136.768 12.18 136.198 12.1573 135.825 12.1339L138.304 6.19887ZM33.7322 23.1066C33.4768 23.1473 33.2166 23.1473 32.9612 23.1066C33.001 23.5709 33.0166 24.7993 33.0166 25.9402C33.0166 27.082 33.001 28.3494 32.9612 28.8137C33.0478 28.7981 33.221 28.7825 33.3467 28.7825C33.4809 28.7825 33.6464 28.7989 33.7322 28.8137C33.6932 28.3494 33.6776 27.082 33.6776 25.9402C33.6776 24.7985 33.6932 23.5701 33.7322 23.1066ZM39.5884 28.8129C39.6651 28.7901 39.7449 28.7795 39.8249 28.7817C39.9115 28.7817 39.9982 28.7895 40.0926 28.8129C40.045 27.3653 40.038 26.2469 40.038 25.4993C40.038 25.3182 40.0536 24.5628 40.0614 24.4122L42.0842 26.538C42.9583 27.4597 43.6747 28.2464 44.2179 28.9253H44.3279C44.3201 28.6803 44.3123 27.5939 44.3123 27.0344C44.3123 25.8458 44.3201 24.5394 44.3677 23.1066C44.2882 23.1284 44.2059 23.1389 44.1234 23.1378C44.0368 23.1378 43.9502 23.13 43.8635 23.1066C43.8955 23.8628 43.919 25.0506 43.919 26.6652C43.919 26.8697 43.9112 27.114 43.9026 27.3973C42.6672 26.1533 41.2733 24.7134 39.8015 23.0051H39.6438V23.8948C39.6431 25.6101 39.6197 28.443 39.5884 28.8129ZM51.9229 23.4991H52.2218C52.7884 23.4991 53.2769 23.5225 53.6937 23.6021C53.6623 23.4384 53.6623 23.2702 53.6937 23.1066C53.4104 23.1229 52.2608 23.1378 51.5834 23.1378C50.9536 23.1378 49.9859 23.13 49.4818 23.1066C49.4896 23.1612 49.4974 23.2876 49.4974 23.3664C49.4974 23.4211 49.4896 23.5467 49.4818 23.6029C49.8361 23.5397 50.3558 23.4999 51.0168 23.4999H51.2611V25.98C51.2611 27.1218 51.2447 28.3494 51.2057 28.8137C51.2923 28.7981 51.4656 28.7825 51.5912 28.7825C51.7247 28.7825 51.8901 28.7989 51.9775 28.8137C51.9377 28.3494 51.9221 27.1218 51.9221 25.98V23.4991H51.9229ZM59.6443 25.9637H60.3053C60.6674 25.9637 61.3206 25.9957 61.7304 26.0347C61.7105 25.8779 61.7105 25.7193 61.7304 25.5625C61.3058 25.5937 60.6682 25.6101 60.3053 25.6101H59.6443V24.523C59.6443 24.3576 59.6521 23.7207 59.6677 23.5311H59.8644C60.7861 23.5311 61.4549 23.5701 61.8802 23.6567C61.8597 23.4737 61.8597 23.2889 61.8802 23.1058C61.2816 23.1292 60.4794 23.1456 60.0298 23.1456C59.5811 23.1456 59.2424 23.1292 58.9279 23.1058C58.9677 23.5311 58.9833 24.7821 58.9833 25.9238C58.9833 27.0648 58.9677 28.3478 58.9279 28.8122H60.4396C60.9195 28.8122 61.6125 28.8215 61.8724 28.8457C61.8724 28.7973 61.8646 28.6631 61.8646 28.5843C61.8646 28.4977 61.8724 28.379 61.8724 28.3322C61.1404 28.3954 60.2819 28.4266 59.8652 28.4266H59.6919C59.6632 27.7421 59.6473 27.057 59.6443 26.3718V25.9637ZM68.09 26.0339C68.1532 26.0261 68.2 26.0183 68.2476 26.0183C68.4053 26.0183 68.4919 26.0807 68.5863 26.2071L69.4916 27.3715C69.8303 27.8047 70.1604 28.2768 70.5311 28.8122C70.6411 28.7966 70.8698 28.781 71.0189 28.781C71.1609 28.781 71.3576 28.7888 71.5066 28.8122C70.9166 28.0645 69.9091 26.8369 69.2871 26.0019C70.3735 25.8052 70.9556 25.2379 70.9556 24.4582C70.9556 23.5537 70.3259 23.105 69.0741 23.105C68.5465 23.105 68.0978 23.1362 67.7435 23.1362C67.649 23.1362 67.4992 23.1206 67.3735 23.105C67.4126 23.5693 67.4282 24.7977 67.4282 25.9387C67.4282 27.0804 67.4126 28.3478 67.3735 28.8122C67.4602 28.7966 67.6334 28.781 67.7591 28.781C67.8933 28.781 68.058 28.7973 68.1446 28.8122C68.1056 28.3556 68.09 27.9389 68.09 27.5604V26.0339ZM68.09 25.7748V24.3099C68.09 24.0587 68.0978 23.7512 68.1446 23.4445C68.4123 23.4289 68.6324 23.4211 68.79 23.4211C69.7507 23.4211 70.2306 23.8066 70.2306 24.5628C70.2306 25.3893 69.6087 25.7904 68.3647 25.7904C68.2729 25.7897 68.1812 25.7845 68.09 25.7748ZM76.5746 28.8129C76.6513 28.7901 76.7311 28.7796 76.8111 28.7817C76.8977 28.7817 76.9851 28.7895 77.0796 28.8129C77.032 27.3653 77.0249 26.2469 77.0249 25.4993C77.0249 25.3182 77.0405 24.5628 77.0476 24.4122L79.072 26.538C79.9452 27.4597 80.6617 28.2464 81.2041 28.9253H81.3141C81.3063 28.6803 81.2985 27.5939 81.2985 27.0344C81.2985 25.8458 81.3063 24.5394 81.3531 23.1066C81.2751 23.13 81.1884 23.1378 81.1096 23.1378C81.023 23.1378 80.9372 23.13 80.8505 23.1066C80.881 23.8628 80.9052 25.0506 80.9052 26.6652C80.9052 26.8697 80.8974 27.114 80.8895 27.3973C79.6534 26.1533 78.2603 24.7134 76.7877 23.0051H76.6308V23.8948C76.6308 25.6101 76.6066 28.443 76.5746 28.8129ZM86.2627 28.8129C86.3361 28.7973 86.4531 28.7817 86.5398 28.7817C86.6342 28.7817 86.7364 28.7895 86.816 28.8129C87.0733 28.0587 87.362 27.3157 87.6815 26.5856C87.9578 26.5778 88.3659 26.57 88.7132 26.57C89.1463 26.57 89.6341 26.5778 89.7363 26.5856L89.8784 26.9165C90.1773 27.6095 90.4059 28.2471 90.5948 28.8137C90.7368 28.7903 90.8781 28.7825 91.0201 28.7825C91.1621 28.7825 91.2948 28.7903 91.4283 28.8137C90.5903 26.8903 89.7825 24.9538 89.0051 23.0051H88.8467C88.014 24.9537 87.1526 26.8899 86.2627 28.8129ZM88.714 24.1453C89.1377 25.1372 89.3742 25.7124 89.4288 25.8536L89.5709 26.1993C89.4062 26.2079 88.7444 26.2157 88.4533 26.2157C88.1622 26.2157 87.9578 26.2079 87.8235 26.1993L88.714 24.1453ZM98.3545 23.4991H98.6549C99.2223 23.4991 99.71 23.5225 100.126 23.6021C100.095 23.4384 100.095 23.2703 100.126 23.1066C99.423 23.1283 98.7198 23.1387 98.0165 23.1378C97.3867 23.1378 96.419 23.13 95.9149 23.1066C95.9242 23.1612 95.9313 23.2876 95.9313 23.3664C95.9313 23.4211 95.9235 23.5467 95.9149 23.6029C96.27 23.5397 96.7897 23.4999 97.4515 23.4999H97.695V25.98C97.695 27.1218 97.6786 28.3494 97.6388 28.8137C97.7254 28.7981 97.8995 28.7825 98.0259 28.7825C98.1586 28.7825 98.3248 28.7989 98.4114 28.8137C98.3716 28.3494 98.3552 27.1218 98.3552 25.98V23.4991H98.3545ZM106.123 23.1066C105.868 23.1472 105.608 23.1472 105.352 23.1066C105.392 23.5709 105.407 24.7993 105.407 25.9402C105.407 27.082 105.391 28.3494 105.352 28.8137C105.439 28.7981 105.613 28.7825 105.738 28.7825C105.872 28.7825 106.037 28.7989 106.123 28.8137C106.084 28.3494 106.069 27.082 106.069 25.9402C106.069 24.7985 106.084 23.5701 106.123 23.1066ZM114.671 28.9253C116.522 28.9253 117.742 27.736 117.742 25.9722C117.742 24.1617 116.577 23.0043 114.671 23.0043C112.815 23.0043 111.594 24.1687 111.594 25.9722C111.594 27.7898 112.759 28.9253 114.671 28.9253ZM114.671 28.6085C113.231 28.6085 112.42 27.6798 112.42 25.9949C112.42 24.2787 113.248 23.318 114.671 23.318C116.136 23.318 116.915 24.2389 116.915 25.9629C116.915 27.672 116.097 28.6085 114.671 28.6085ZM123.055 28.8129C123.132 28.7901 123.212 28.7796 123.292 28.7817C123.378 28.7817 123.464 28.7895 123.559 28.8129C123.511 27.3653 123.504 26.2469 123.504 25.4993C123.504 25.3182 123.52 24.5628 123.528 24.4122L125.551 26.538C126.424 27.4597 127.141 28.2464 127.685 28.9253H127.795C127.787 28.6803 127.779 27.5939 127.779 27.0344C127.779 25.8458 127.787 24.5394 127.834 23.1066C127.754 23.13 127.668 23.1378 127.59 23.1378C127.504 23.1378 127.416 23.13 127.33 23.1066C127.362 23.8628 127.384 25.0506 127.384 26.6652C127.384 26.8697 127.377 27.114 127.369 27.3973C126.133 26.1533 124.74 24.7134 123.267 23.0051H123.11V23.8948C123.11 25.6101 123.087 28.443 123.055 28.8129ZM132.743 28.8129C132.815 28.7973 132.934 28.7817 133.02 28.7817C133.115 28.7817 133.217 28.7895 133.295 28.8129C133.564 28.0489 133.839 27.3099 134.161 26.5856C134.437 26.5778 134.847 26.57 135.192 26.57C135.626 26.57 136.113 26.5778 136.215 26.5856L136.358 26.9165C136.658 27.6095 136.885 28.2471 137.074 28.8137C137.216 28.7903 137.357 28.7825 137.499 28.7825C137.641 28.7825 137.776 28.7903 137.909 28.8137C137.071 26.8903 136.262 24.9538 135.484 23.0051H135.327C134.494 24.9533 133.632 26.8894 132.743 28.8129ZM135.192 24.1453C135.618 25.1372 135.854 25.7124 135.909 25.8536L136.051 26.1993C135.885 26.2079 135.224 26.2157 134.933 26.2157C134.641 26.2157 134.436 26.2079 134.302 26.1993L135.192 24.1453ZM143.725 23.1066C143.47 23.1472 143.21 23.1472 142.954 23.1066C142.993 23.5709 143.009 24.7993 143.009 25.9402C143.009 27.082 142.993 28.3494 142.954 28.8137C143.261 28.7903 143.671 28.7825 144.064 28.7825C144.371 28.7825 145.017 28.7989 146 28.8137C145.98 28.6413 145.98 28.4672 146 28.2948C145.591 28.3806 145.032 28.4282 144.3 28.4282C144.087 28.4282 143.78 28.4204 143.732 28.4126C143.695 27.589 143.674 26.7647 143.67 25.9402C143.671 24.7985 143.686 23.5701 143.725 23.1066Z" fill="#067164"/>
</svg>
